<svg xmlns="http://www.w3.org/2000/svg" width="1280" height="360" viewBox="0 0 1280 360" role="img" aria-label="Jhoniex Gamayon, Full-Stack, AI and Systems Developer">
  <defs>
    <linearGradient id="background" x1="0" y1="0" x2="1" y2="1">
      <stop offset="0%" stop-color="#050816"/>
      <stop offset="48%" stop-color="#111a35"/>
      <stop offset="100%" stop-color="#081526"/>
    </linearGradient>
    <linearGradient id="line" x1="0" y1="0" x2="1" y2="0">
      <stop offset="0%" stop-color="#8b5cf6"/>
      <stop offset="50%" stop-color="#3b82f6"/>
      <stop offset="100%" stop-color="#22d3ee"/>
    </linearGradient>
    <radialGradient id="glow">
      <stop offset="0%" stop-color="#3b82f6" stop-opacity=".38"/>
      <stop offset="100%" stop-color="#3b82f6" stop-opacity="0"/>
    </radialGradient>
  </defs>

  <rect width="1280" height="360" fill="url(#background)"/>
  <circle cx="1030" cy="70" r="250" fill="url(#glow)"/>
  <circle cx="170" cy="330" r="230" fill="url(#glow)" opacity=".45"/>

  <g opacity=".18" stroke="#7dd3fc">
    <path d="M0 70H1280M0 140H1280M0 210H1280M0 280H1280"/>
    <path d="M120 0V360M240 0V360M360 0V360M480 0V360M600 0V360M720 0V360M840 0V360M960 0V360M1080 0V360M1200 0V360"/>
  </g>

  <g transform="translate(80 70)">
    <rect width="520" height="220" rx="20" fill="#07101f" stroke="#263b59"/>
    <rect width="520" height="42" rx="20" fill="#101c31"/>
    <circle cx="24" cy="21" r="6" fill="#fb7185"/>
    <circle cx="46" cy="21" r="6" fill="#facc15"/>
    <circle cx="68" cy="21" r="6" fill="#4ade80"/>
    <text x="34" y="84" fill="#a78bfa" font-size="21" font-family="monospace">const developer = {</text>
    <text x="62" y="120" fill="#e2e8f0" font-size="18" font-family="monospace">name: "Jhoniex Gamayon",</text>
    <text x="62" y="154" fill="#67e8f9" font-size="18" font-family="monospace">focus: ["Full Stack", "AI", "Systems"],</text>
    <text x="62" y="188" fill="#86efac" font-size="18" font-family="monospace">location: "Melbourne"</text>
    <text x="34" y="216" fill="#a78bfa" font-size="21" font-family="monospace">};</text>
  </g>

  <g transform="translate(665 102)">
    <text x="0" y="0" fill="#f8fafc" font-size="53" font-weight="800" font-family="Arial, sans-serif">JHONIEX GAMAYON</text>
    <rect x="0" y="28" width="485" height="5" rx="2.5" fill="url(#line)"/>
    <text x="0" y="83" fill="#cbd5e1" font-size="25" font-family="Arial, sans-serif">FULL-STACK • AI • SYSTEMS DEVELOPER</text>
    <text x="0" y="126" fill="#94a3b8" font-size="18" font-family="Arial, sans-serif">Secure software. Practical AI. Scalable architecture.</text>
    <g transform="translate(0 157)">
      <rect width="150" height="38" rx="19" fill="#8b5cf6" opacity=".18" stroke="#a78bfa"/>
      <text x="75" y="25" text-anchor="middle" fill="#ddd6fe" font-size="14" font-family="Arial, sans-serif">NEXT.JS + NODE</text>
      <rect x="165" width="150" height="38" rx="19" fill="#3b82f6" opacity=".18" stroke="#60a5fa"/>
      <text x="240" y="25" text-anchor="middle" fill="#bfdbfe" font-size="14" font-family="Arial, sans-serif">PYTHON + ML</text>
      <rect x="330" width="150" height="38" rx="19" fill="#06b6d4" opacity=".18" stroke="#22d3ee"/>
      <text x="405" y="25" text-anchor="middle" fill="#cffafe" font-size="14" font-family="Arial, sans-serif">C++ SYSTEMS</text>
    </g>
  </g>
</svg>