<svg xmlns="http://www.w3.org/2000/svg" width="600" height="260" viewBox="0 0 600 260" role="img" aria-label="Networking &amp; Security">
  <defs>
    <linearGradient id="bg" x1="0" y1="0" x2="1" y2="1">
      <stop offset="0%" stop-color="#0b1020"/>
      <stop offset="100%" stop-color="#111827"/>
    </linearGradient>
    <linearGradient id="accent" x1="0" y1="0" x2="1" y2="0">
      <stop offset="0%" stop-color="#06b6d4"/>
      <stop offset="100%" stop-color="#22d3ee"/>
    </linearGradient>
    <filter id="shadow" x="-20%" y="-20%" width="140%" height="140%">
      <feDropShadow dx="0" dy="8" stdDeviation="10" flood-color="#000" flood-opacity=".35"/>
    </filter>
  </defs>
  <rect x="10" y="10" width="580" height="240" rx="22" fill="url(#bg)" stroke="#243148" filter="url(#shadow)"/>
  <rect x="10" y="10" width="580" height="5" rx="3" fill="url(#accent)"/>
  <circle cx="66" cy="68" r="28" fill="#06b6d4" opacity=".18"/>
  <text x="66" y="78" text-anchor="middle" font-size="30" font-family="Arial, sans-serif">🛡️</text>
  <text x="112" y="62" fill="#f8fafc" font-size="24" font-weight="700" font-family="Arial, sans-serif">Networking &amp; Security</text>
  <text x="112" y="88" fill="#94a3b8" font-size="14" font-family="Arial, sans-serif">Cybersecurity, networks and cloud labs</text>
  <line x1="34" y1="122" x2="566" y2="122" stroke="#26354d"/>
  <text x="34" y="146" fill="#cbd5e1" font-size="13" font-family="Arial, sans-serif">TECHNOLOGY &amp; FOCUS</text>
  <rect x="34" y="152" width="51" height="28" rx="14" fill="#111827" stroke="#334155"/><text x="42" y="172" fill="#cbd5e1" font-size="12" font-family="Arial, sans-serif">Linux</text><rect x="95" y="152" width="79" height="28" rx="14" fill="#111827" stroke="#334155"/><text x="103" y="172" fill="#cbd5e1" font-size="12" font-family="Arial, sans-serif">Wireshark</text><rect x="184" y="152" width="44" height="28" rx="14" fill="#111827" stroke="#334155"/><text x="192" y="172" fill="#cbd5e1" font-size="12" font-family="Arial, sans-serif">Nmap</text><rect x="238" y="152" width="37" height="28" rx="14" fill="#111827" stroke="#334155"/><text x="246" y="172" fill="#cbd5e1" font-size="12" font-family="Arial, sans-serif">AWS</text><rect x="285" y="152" width="51" height="28" rx="14" fill="#111827" stroke="#334155"/><text x="293" y="172" fill="#cbd5e1" font-size="12" font-family="Arial, sans-serif">Azure</text>
  <text x="34" y="230" fill="#06b6d4" font-size="13" font-weight="700" font-family="Arial, sans-serif">VIEW PROJECT ON GITHUB →</text>
</svg>